<svg width="512" height="512" viewBox="0 0 512 512" fill="none" xmlns="http://www.w3.org/2000/svg">
<style>
  @media (prefers-color-scheme: dark) {
    rect { fill: #171717 }
    path { fill: #EEEEEE }
  }
</style>
<rect width="512" height="512" rx="32" fill="#F4F4F4"/>
<path d="M186.12 169.68V210C171 201.227 155.32 196.84 139.08 196.84C131.8 196.84 126.2 198.333 122.28 201.32C118.547 204.307 116.68 208.133 116.68 212.8C116.68 217.467 119.013 221.667 123.68 225.4C128.347 228.947 135.347 232.773 144.68 236.88C150.467 239.493 155.227 241.827 158.96 243.88C162.88 245.747 167.267 248.453 172.12 252C177.16 255.36 181.08 259 183.88 262.92C186.867 266.653 189.387 271.32 191.44 276.92C193.493 282.52 194.52 288.587 194.52 295.12C194.52 312.107 188.267 325.92 175.76 336.56C163.253 347.013 146.64 352.24 125.92 352.24C103.707 352.24 85.6 348.32 71.6 340.48V297.08C88.5867 309.4 106.693 315.56 125.92 315.56C132.453 315.56 137.867 313.88 142.16 310.52C146.453 306.973 148.6 302.4 148.6 296.8C148.6 294.933 148.32 293.16 147.76 291.48C147.2 289.8 146.173 288.213 144.68 286.72C143.187 285.227 141.693 284.013 140.2 283.08C138.893 281.96 136.84 280.747 134.04 279.44C131.427 277.947 129.187 276.733 127.32 275.8C125.453 274.867 122.653 273.56 118.92 271.88C115.373 270.2 112.48 268.893 110.24 267.96C98.1067 262.36 88.3067 255.453 80.84 247.24C73.56 239.027 69.92 228.107 69.92 214.48C69.92 198.24 75.8933 185.173 87.84 175.28C99.7867 165.2 116.307 160.16 137.4 160.16C156.253 160.16 172.493 163.333 186.12 169.68ZM216.828 350L233.068 161.28H280.388L306.708 229.6C311.188 240.987 315.015 251.44 318.188 260.96C321.361 270.48 323.415 277.2 324.348 281.12L325.748 286.72C328.735 274.4 335.268 255.36 345.348 229.6L371.948 161.28H419.268L438.868 350H395.748L388.748 276.92L385.108 221.76C380.255 235.76 373.535 254.147 364.948 276.92L338.348 348.04H312.868L286.548 276.92C282.255 265.347 278.615 254.987 275.628 245.84C272.641 236.693 270.681 230.347 269.748 226.8L268.348 221.76C268.348 235.013 267.508 253.4 265.828 276.92L259.948 350H216.828Z" fill="#222222"/>
</svg>
